<svg width="353" height="38" viewBox="0 0 353 38" fill="none" xmlns="http://www.w3.org/2000/svg">
<line x1="106.63" y1="31.1373" x2="115.979" y2="21.7194" stroke="url(#paint0_linear_3548_2795)" stroke-width="0.938272"/>
<line x1="132.901" y1="21.2847" x2="142.25" y2="11.8668" stroke="url(#paint1_linear_3548_2795)" stroke-width="0.938272"/>
<path d="M0.180148 30L8.31684 8.62242H14.4419L22.4885 30H16.2434L10.2684 11.8351H12.4302L6.30519 30H0.180148ZM5.46449 26.397V21.7132H17.4143V26.397H5.46449ZM34.7707 21.473V17.3296H38.4037C39.2244 17.3296 39.8449 17.1294 40.2652 16.7291C40.7056 16.3288 40.9258 15.7983 40.9258 15.1378C40.9258 14.4772 40.7056 13.9468 40.2652 13.5465C39.8449 13.1461 39.2244 12.946 38.4037 12.946H34.7707V8.62242H39.3645C40.8457 8.62242 42.1468 8.89264 43.2677 9.43308C44.3886 9.97353 45.2693 10.7241 45.9099 11.6849C46.5504 12.6457 46.8707 13.7666 46.8707 15.0477C46.8707 16.3288 46.5404 17.4497 45.8798 18.4105C45.2393 19.3713 44.3386 20.1219 43.1776 20.6623C42.0167 21.2028 40.6455 21.473 39.0642 21.473H34.7707ZM29.9067 30V8.62242H35.9116V30H29.9067ZM41.4362 30L35.6114 20.8725L41.0158 19.7015L48.2518 30H41.4362ZM60.1261 30V8.62242H66.131V30H60.1261ZM53.7308 13.7266V8.62242H72.5563V13.7266H53.7308ZM92.3454 30L86.7008 20.4822H86.1903L78.1737 8.62242H85.3196L90.7841 17.5998H91.2945L99.4012 30H92.3454ZM77.7834 30L85.4697 18.5606L90.3337 20.6023L84.6591 30H77.7834ZM91.3846 20.0618L86.5206 18.0201L92.1352 8.62242H99.0109L91.3846 20.0618ZM116.73 30.3603C115.089 30.3603 113.557 30.0901 112.136 29.5496C110.735 28.9892 109.504 28.2085 108.443 27.2077C107.382 26.2069 106.552 25.0359 105.951 23.6948C105.371 22.3337 105.08 20.8625 105.08 19.2812C105.08 17.6799 105.371 16.2087 105.951 14.8676C106.552 13.5265 107.372 12.3655 108.413 11.3847C109.474 10.4039 110.705 9.64326 112.106 9.10281C113.507 8.54235 115.029 8.26212 116.67 8.26212C118.331 8.26212 119.852 8.52234 121.234 9.04276C122.615 9.56319 123.816 10.2838 124.837 11.2045L120.843 15.2279C120.363 14.7074 119.772 14.2971 119.072 13.9968C118.391 13.6966 117.591 13.5465 116.67 13.5465C115.869 13.5465 115.129 13.6766 114.448 13.9368C113.787 14.197 113.217 14.5773 112.737 15.0777C112.256 15.5781 111.876 16.1886 111.596 16.9092C111.335 17.6098 111.205 18.4005 111.205 19.2812C111.205 20.1819 111.335 20.9926 111.596 21.7132C111.876 22.4138 112.256 23.0143 112.737 23.5147C113.217 24.0151 113.787 24.4054 114.448 24.6856C115.129 24.9458 115.869 25.076 116.67 25.076C117.571 25.076 118.371 24.9358 119.072 24.6556C119.792 24.3754 120.413 23.965 120.933 23.4246L124.957 27.4479C123.896 28.3687 122.705 29.0893 121.384 29.6097C120.063 30.1101 118.511 30.3603 116.73 30.3603ZM132.742 30V8.62242H138.747V30H132.742ZM145.653 30V8.62242H151.658V30H145.653ZM136.015 21.5931V16.609H147.995V21.5931H136.015ZM159.316 30L167.452 8.62242H173.577L181.624 30H175.379L169.404 11.8351H171.566L165.441 30H159.316ZM164.6 26.397V21.7132H176.55V26.397H164.6ZM189.042 30V8.62242H193.246L195.047 13.1261V30H189.042ZM203.754 30L191.354 14.4172L193.246 8.62242L205.646 24.2052L203.754 30ZM203.754 30L202.253 25.2561V8.62242H208.258V30H203.754ZM228.039 30.3603C226.377 30.3603 224.836 30.0901 223.415 29.5496C222.014 28.9892 220.783 28.2085 219.722 27.2077C218.681 26.2069 217.87 25.0359 217.29 23.6948C216.709 22.3537 216.419 20.8925 216.419 19.3112C216.419 17.7099 216.719 16.2387 217.32 14.8976C217.94 13.5565 218.791 12.3955 219.872 11.4147C220.973 10.4139 222.244 9.64326 223.685 9.10281C225.126 8.54235 226.668 8.26212 228.309 8.26212C230.291 8.26212 232.062 8.6024 233.623 9.28296C235.205 9.96352 236.486 10.8843 237.466 12.0452L233.413 16.0986C232.673 15.2379 231.902 14.5973 231.101 14.177C230.301 13.7566 229.34 13.5465 228.219 13.5465C227.158 13.5465 226.197 13.7867 225.336 14.2671C224.476 14.7274 223.785 15.388 223.265 16.2487C222.764 17.1094 222.514 18.1202 222.514 19.2812C222.514 20.4421 222.744 21.463 223.205 22.3437C223.685 23.2044 224.346 23.875 225.186 24.3554C226.027 24.8358 227.008 25.076 228.129 25.076C229.21 25.076 230.12 24.8658 230.861 24.4454C231.602 24.0251 232.162 23.4246 232.542 22.644C232.943 21.8633 233.143 20.9426 233.143 19.8817L237.256 22.4938L227.318 22.1936V17.3896H239.178V18.2904C239.178 20.8525 238.707 23.0343 237.767 24.8358C236.846 26.6372 235.545 28.0084 233.864 28.9491C232.202 29.8899 230.261 30.3603 228.039 30.3603ZM247.131 30V8.62242H253.136V30H247.131ZM251.995 30V25.0159H263.464V30H251.995ZM251.995 21.533V16.669H262.353V21.533H251.995ZM251.995 13.6065V8.62242H263.284V13.6065H251.995Z" fill="url(#paint2_linear_3548_2795)"/>
<defs>
<linearGradient id="paint0_linear_3548_2795" x1="111.043" y1="26.1689" x2="112.642" y2="27.7562" gradientUnits="userSpaceOnUse">
<stop stop-color="#0B056C"/>
<stop offset="1" stop-color="#DD33E2"/>
</linearGradient>
<linearGradient id="paint1_linear_3548_2795" x1="137.315" y1="16.3164" x2="138.914" y2="17.9036" gradientUnits="userSpaceOnUse">
<stop stop-color="#0B056C"/>
<stop offset="1" stop-color="#DD33E2"/>
</linearGradient>
<linearGradient id="paint2_linear_3548_2795" x1="132.5" y1="-31.8193" x2="132.5" y2="53.7952" gradientUnits="userSpaceOnUse">
<stop stop-color="#0B056C"/>
<stop offset="1" stop-color="#DD33E2"/>
</linearGradient>
</defs>
</svg>
